<?xml version="1.0" encoding="iso-8859-1"?>
<!-- Uploaded to: SVG Repo, www.svgrepo.com, Generator: SVG Repo Mixer Tools -->
<svg fill="#000000" height="800px" width="800px" version="1.1" id="Layer_1" xmlns="http://www.w3.org/2000/svg" xmlns:xlink="http://www.w3.org/1999/xlink" 
	 viewBox="0 0 512 512" xml:space="preserve">
<g>
	<g>
		<g>
			<path d="M448,128H307.503l48.915-48.915c8.331-8.331,8.331-21.839,0-30.17c-8.331-8.331-21.839-8.331-30.17,0L256,119.163
				l-70.248-70.248c-8.331-8.331-21.839-8.331-30.17,0s-8.331,21.839,0,30.17L204.497,128H64c-35.355,0-64,28.645-64,64v170.667
				c0,27.872,17.808,51.562,42.667,60.346V448c0,11.782,9.551,21.333,21.333,21.333c11.782,0,21.333-9.551,21.333-21.333v-21.333
				h341.333V448c0,11.782,9.551,21.333,21.333,21.333c11.782,0,21.333-9.551,21.333-21.333v-24.987
				C494.192,414.228,512,390.539,512,362.667V192C512,156.645,483.355,128,448,128z M469.333,362.667
				c0,11.791-9.542,21.333-21.333,21.333H64c-11.791,0-21.333-9.542-21.333-21.333V192c0-11.791,9.542-21.333,21.333-21.333h384
				c11.791,0,21.333,9.542,21.333,21.333V362.667z"/>
			<path d="M234.667,192h-128C83.109,192,64,211.109,64,234.667V320c0,23.558,19.109,42.667,42.667,42.667h128
				c23.558,0,42.667-19.109,42.667-42.667v-85.333C277.333,211.109,258.225,192,234.667,192z M234.667,320h-128v-85.333h128V320z"/>
			<path d="M405.333,213.333h-42.667c-11.782,0-21.333,9.551-21.333,21.333c0,11.782,9.551,21.333,21.333,21.333h42.667
				c11.782,0,21.333-9.551,21.333-21.333C426.667,222.885,417.115,213.333,405.333,213.333z"/>
			<path d="M405.333,298.667h-42.667c-11.782,0-21.333,9.551-21.333,21.333s9.551,21.333,21.333,21.333h42.667
				c11.782,0,21.333-9.551,21.333-21.333S417.115,298.667,405.333,298.667z"/>
		</g>
	</g>
</g>
</svg>