<?xml version="1.0" encoding="iso-8859-1"?>
<!-- Uploaded to: SVG Repo, www.svgrepo.com, Generator: SVG Repo Mixer Tools -->
<svg fill="#000000" version="1.1" id="Layer_1" xmlns="http://www.w3.org/2000/svg" xmlns:xlink="http://www.w3.org/1999/xlink" 
	 viewBox="0 0 512 512" xml:space="preserve">
<g>
	<g>
		<rect x="375.82" y="79.292" width="15.637" height="23.977"/>
	</g>
</g>
<g>
	<g>
		<rect x="103.728" y="63.654" width="32.317" height="15.637"/>
	</g>
</g>
<g>
	<g>
		<rect x="103.728" y="160.606" width="32.317" height="15.637"/>
	</g>
</g>
<g>
	<g>
		<rect x="88.091" y="88.674" width="63.592" height="15.637"/>
	</g>
</g>
<g>
	<g>
		<rect x="88.091" y="135.586" width="63.592" height="15.637"/>
	</g>
</g>
<g>
	<g>
		<rect x="64.114" y="111.609" width="103.207" height="15.637"/>
	</g>
</g>
<g>
	<g>
		<path d="M207.392,111.613c-4.102-44.673-41.766-79.781-87.49-79.781c-48.455,0-87.877,39.422-87.877,87.878
			c0,48.455,39.422,87.877,87.877,87.877c45.915,0,83.693-35.401,87.533-80.337h41.199v-15.637H207.392z M119.902,191.95
			c-39.833,0-72.24-32.407-72.24-72.24c0-39.834,32.407-72.241,72.24-72.241c39.834,0,72.241,32.407,72.241,72.241
			C192.141,159.544,159.735,191.95,119.902,191.95z"/>
	</g>
</g>
<g>
	<g>
		<rect x="264.273" y="111.609" width="16.68" height="15.637"/>
	</g>
</g>
<g>
	<g>
		<rect x="95.388" y="264.856" width="16.68" height="15.637"/>
	</g>
</g>
<g>
	<g>
		<rect x="95.388" y="295.088" width="16.68" height="15.637"/>
	</g>
</g>
<g>
	<g>
		<rect x="95.388" y="327.406" width="16.68" height="15.637"/>
	</g>
</g>
<g>
	<g>
		<path d="M120.456,0.066h-0.475C53.922,0.066,0.167,53.708,0.034,119.71H0v264.195c0,37.007,28.119,67.561,64.112,71.441v16.971
			H79.75V455.33c35.931-3.94,63.983-34.463,63.983-71.424V236.985l312.358-38.298V40.734L120.456,0.066z M71.867,440.134
			c-19.523,0-36.747-10.006-46.832-25.153h93.663C108.613,430.128,91.388,440.134,71.867,440.134z M127.539,391.723
			c-0.364,2.601-0.908,5.144-1.617,7.619H17.81c-0.708-2.475-1.253-5.018-1.617-7.619h15.643v-15.637H15.637v-197.05
			c20.642,36.282,59.671,60.805,104.328,60.805h0.474l7.654-0.938v137.184H47.848v15.637H127.539z M391.456,190.814v-79.201h-15.637
			v81.107l-256.32,31.253C62.203,223.723,15.67,177.047,15.67,119.71S62.21,15.697,119.515,15.447l256.303,31.252v25.299h15.637
			V48.606l25.02,3.05v136.107h0.001L391.456,190.814z M440.453,184.84l-8.34,1.016V53.563l8.34,1.018V184.84z"/>
	</g>
</g>
<g>
	<g>
		<path d="M79.684,479.976H64.047c0,17.555,14.282,31.837,31.837,31.837v-15.637C86.951,496.175,79.684,488.908,79.684,479.976z"/>
	</g>
</g>
<g>
	<g>
		<path d="M511.781,299.28c-2.323-24.351-23.648-43.458-48.694-43.786c-3.839-17.986-19.846-31.519-38.96-31.519h-47.849v15.867
			h-40.075v15.637h40.075v16.68h-40.075v15.637h40.075v15.864h47.849c19.468,0,35.709-14.039,39.156-32.523
			c16.717,0.432,31.398,13.551,32.931,29.628c0.885,9.276-2.207,18.554-8.482,25.457c-6.108,6.719-14.701,10.572-23.576,10.572
			H233.705c-25.807,0-47.021,18.382-49.346,42.759c-1.292,13.549,2.984,26.497,12.04,36.458c9.043,9.945,22.013,15.65,35.586,15.65
			h70.333c17.384,0,32.221,12.795,33.778,29.127c0.883,9.259-2.051,18.121-8.262,24.952c-6.099,6.708-14.772,10.555-23.797,10.555
			h-200.31v15.637h200.31c13.421,0,26.312-5.713,35.367-15.673c9.078-9.985,13.546-23.455,12.259-36.957
			c-2.314-24.269-23.99-43.28-49.346-43.28h-70.333c-9.177,0-17.93-3.839-24.015-10.532c-6.056-6.661-8.912-15.344-8.043-24.454
			c1.529-16.041,16.367-28.606,33.778-28.606h230.451c13.271,0,26.081-5.719,35.147-15.691
			C508.535,326.585,513.082,312.932,511.781,299.28z M424.126,288.021h-32.211v-48.409h32.211c13.346,0,24.205,10.858,24.205,24.205
			C448.331,277.164,437.473,288.021,424.126,288.021z"/>
	</g>
</g>
</svg>